<svg xmlns="http://www.w3.org/2000/svg" width="42.001" height="27.512" viewBox="0 0 42.001 27.512">
    <defs>
        <style>
            .prefix__cls-2{fill:#fff}
        </style>
    </defs>
    <g id="prefix__그룹_520" data-name="그룹 520" transform="translate(-292.352 -202.995)">
        <g id="prefix__그룹_491" data-name="그룹 491" transform="translate(296.653 206.456)">
            <path id="prefix__패스_2037" d="M299.638 210.935v17.821a2.068 2.068 0 0 0 2.068 2.068h25.8l-24.14-21.967z" data-name="패스 2037" transform="translate(-299.638 -208.857)" style="fill:#c9c9f4"/>
        </g>
        <g id="prefix__그룹_493" data-name="그룹 493" transform="translate(292.352 202.995)">
            <g id="prefix__그룹_492" data-name="그룹 492">
                <path id="prefix__패스_2038" d="M320.062 222.733l-17.441.06a2.119 2.119 0 0 1-1.453-.567c-1.749-1.628-6.732-6.273-8.169-7.71l-.023-.022a2.127 2.127 0 0 1 .049-3.055l8.39-7.868a2.125 2.125 0 0 1 1.454-.575h12.87a2.128 2.128 0 0 1 1.456.577l2.621 2.464a.737.737 0 0 1-.5 1.275h-14.741a2.125 2.125 0 0 0-1.455.575l-3.806 3.569a2.122 2.122 0 0 0 .017 3.117c1.043.953 2.276 2.058 3.762 3.372a2.138 2.138 0 0 0 1.412.536h15.549a2.126 2.126 0 0 1 1.419.543 2.126 2.126 0 0 1-1.411 3.709z" class="prefix__cls-2" data-name="패스 2038" transform="translate(-292.352 -202.995)"/>
            </g>
        </g>
        <g id="prefix__그룹_495" data-name="그룹 495" transform="translate(305.09 210.706)">
            <g id="prefix__그룹_494" data-name="그룹 494">
                <path id="prefix__패스_2039" d="M332.672 235.858h-13.12a2.159 2.159 0 0 1-1.471-.579l-2.656-2.476a.728.728 0 0 1 .5-1.26h15.12a2.168 2.168 0 0 0 1.432-.544c1.47-1.3 2.693-2.4 3.729-3.341a2.153 2.153 0 0 0 .018-3.163l-3.776-3.542a2.146 2.146 0 0 0-1.473-.581H316.09a2.157 2.157 0 0 1-1.406-3.794 2.158 2.158 0 0 1 1.406-.521h16.588a2.156 2.156 0 0 1 1.476.584l8.357 7.837a2.158 2.158 0 0 1 .05 3.1c-1.753 1.752-4.2 3.995-8.462 7.742a2.157 2.157 0 0 1-1.427.538z" class="prefix__cls-2" data-name="패스 2039" transform="translate(-313.928 -216.057)"/>
            </g>
        </g>
    </g>
</svg>
