<svg xmlns="http://www.w3.org/2000/svg" id="prefix__스플래시logo" width="113.025" height="25.633" viewBox="0 0 113.025 25.633">
    <defs>
        <style>
            .prefix__cls-1{fill:#fff}
        </style>
    </defs>
    <g id="prefix__그룹_9" data-name="그룹 9">
        <path id="prefix__패스_10" d="M537.13 628.273l2.684-3.221a9.19 9.19 0 005.935 2.588c2.43 0 3.724-1.042 3.724-2.683 0-1.737-1.42-2.272-3.5-3.158l-3.125-1.326c-2.367-.978-4.736-2.872-4.736-6.281 0-3.821 3.347-6.756 8.081-6.756a10.369 10.369 0 017.326 3l-2.369 2.935a7.45 7.45 0 00-4.957-1.924c-2.052 0-3.377.915-3.377 2.46 0 1.674 1.673 2.274 3.663 3.063l3.062 1.294c2.841 1.168 4.7 2.968 4.7 6.345 0 3.819-3.189 7.071-8.588 7.071a12.45 12.45 0 01-8.523-3.407z" class="prefix__cls-1" data-name="패스 10" transform="translate(-537.13 -606.049)"/>
        <path id="prefix__패스_11" d="M549.85 606.558h4.61v6.342l-.191 3.316a8.052 8.052 0 015.556-2.59c3.82 0 5.462 2.653 5.462 7.1v11.018h-4.641V621.3c0-2.714-.757-3.693-2.493-3.693-1.453 0-2.369.694-3.693 1.988v12.154h-4.61z" class="prefix__cls-1" data-name="패스 11" transform="translate(-529.777 -606.558)"/>
        <path id="prefix__패스_12" d="M561.591 624.36c0-3.787 3.062-5.777 10.164-6.535-.063-1.736-.821-3.063-3-3.063a9.989 9.989 0 00-4.862 1.674l-1.674-3.061a14.118 14.118 0 017.389-2.337c4.483 0 6.787 2.683 6.787 7.8v10.324h-3.789l-.347-1.9h-.095a8.309 8.309 0 01-5.335 2.337 5.021 5.021 0 01-5.238-5.239zm10.164-.126v-3.567c-4.292.568-5.744 1.736-5.744 3.314 0 1.389.978 1.988 2.334 1.988a4.681 4.681 0 003.41-1.735z" class="prefix__cls-1" data-name="패스 12" transform="translate(-522.99 -603.968)"/>
        <path id="prefix__패스_13" d="M573.47 611.48h3.787l.316 3.126h.126c1.3-2.3 3.189-3.568 5.02-3.568a5.019 5.019 0 012.083.379l-.819 4.01a5.581 5.581 0 00-1.832-.284c-1.389 0-3.063.915-4.071 3.472v10.545h-4.61z" class="prefix__cls-1" data-name="패스 13" transform="translate(-516.123 -603.968)"/>
        <path id="prefix__패스_14" d="M580.749 620.35c0-5.744 4.01-9.312 8.241-9.312 4.86 0 7.385 3.568 7.385 8.46a8.638 8.638 0 01-.219 2.115h-10.892a4.645 4.645 0 004.894 4.42 7.272 7.272 0 003.977-1.231l1.578 2.842a11.161 11.161 0 01-6.186 1.957c-4.927-.001-8.778-3.442-8.778-9.251zm11.649-1.8c0-2.4-1.073-3.917-3.345-3.917-1.864 0-3.505 1.327-3.852 3.917z" class="prefix__cls-1" data-name="패스 14" transform="translate(-511.915 -603.968)"/>
        <path id="prefix__패스_15" d="M597.27 620.565v-12.847h4.671v13.257c0 4.862 1.674 6.5 4.42 6.5 2.777 0 4.545-1.641 4.545-6.5v-13.257h4.483v12.847c0 7.766-3.316 10.955-9.028 10.955-5.682 0-9.091-3.189-9.091-10.955z" class="prefix__cls-1" data-name="패스 15" transform="translate(-502.364 -605.887)"/>
    </g>
</svg>
