<svg xmlns="http://www.w3.org/2000/svg" width="22" height="22" viewBox="0 0 22 22">
    <path id="prefix__패스_1990" d="M975-65.387a2.887 2.887 0 012.887 2.888A2.887 2.887 0 01975-59.613a2.887 2.887 0 01-2.887-2.887A2.887 2.887 0 01975-65.387zm0 12.375c4.084 0 8.387 2.007 8.387 2.887v1.512h-16.774v-1.512c0-.88 4.303-2.887 8.387-2.887zM975-68a5.5 5.5 0 00-5.5 5.5A5.5 5.5 0 00975-57a5.5 5.5 0 005.5-5.5A5.5 5.5 0 00975-68zm0 12.375c-3.671 0-11 1.842-11 5.5V-46h22v-4.125c0-2.169-2.577-3.7-5.734-4.675a19.537 19.537 0 00-5.266-.825z" data-name="패스 1990" transform="translate(-964 68)" style="fill:#fff"/>
</svg>
